HIERARCHY
ROOT hip
{
  OFFSET 0 0 0
  CHANNELS 6 Xposition Yposition Zposition Zrotation Yrotation Xrotation
  JOINT abdomen
  {
    OFFSET 0 20.6881 -0.73152
    CHANNELS 3 Zrotation Xrotation Yrotation
    JOINT chest
    {
      OFFSET 0 11.7043 -0.48768
      CHANNELS 3 Zrotation Xrotation Yrotation
      JOINT neck
      {
        OFFSET 0 22.1894 -2.19456
        CHANNELS 3 Zrotation Xrotation Yrotation
        JOINT head
        {
          OFFSET -0.24384 7.07133 1.2192
          CHANNELS 3 Zrotation Xrotation Yrotation
          JOINT leftEye
          {
            OFFSET 4.14528 8.04674 8.04672
            CHANNELS 3 Zrotation Xrotation Yrotation
            End Site
            {
              OFFSET 1 0 0
            }
          }
          JOINT rightEye
          {
            OFFSET -3.6576 8.04674 8.04672
            CHANNELS 3 Zrotation Xrotation Yrotation
            End Site
            {
              OFFSET 1 0 0
            }
          }
        }
      }
      JOINT rCollar
      {
        OFFSET -2.68224 19.2634 -4.8768
        CHANNELS 3 Zrotation Xrotation Yrotation
        JOINT rShldr
        {
          OFFSET -8.77824 -1.95073 1.46304
          CHANNELS 3 Zrotation Xrotation Yrotation
          JOINT rForeArm
          {
            OFFSET -28.1742 -1.7115 0.48768
            CHANNELS 3 Zrotation Xrotation Yrotation
            JOINT rHand
            {
              OFFSET -22.5879 0.773209 7.07136
              CHANNELS 3 Zrotation Xrotation Yrotation
              JOINT rThumb1
              {
                OFFSET -1.2192 -0.487915 3.41376
                CHANNELS 3 Zrotation Xrotation Yrotation
                JOINT rThumb2
                {
                  OFFSET -3.37035 -0.52449 3.41376
                  CHANNELS 3 Zrotation Xrotation Yrotation
                  End Site
                  {
                    OFFSET -1.78271 -1.18214 1.43049
                  }
                }
              }
              JOINT rIndex1
              {
                OFFSET -7.75947 0.938293 5.60832
                CHANNELS 3 Zrotation Xrotation Yrotation
                JOINT rIndex2
                {
                  OFFSET -2.54057 -0.884171 1.56538
                  CHANNELS 3 Zrotation Xrotation Yrotation
                  End Site
                  {
                    OFFSET -1.62519 -0.234802 1.16502
                  }
                }
              }
              JOINT rMid1
              {
                OFFSET -8.24714 1.18213 3.41376
                CHANNELS 3 Zrotation Xrotation Yrotation
                JOINT rMid2
                {
                  OFFSET -3.10165 -0.590103 1.0647
                  CHANNELS 3 Zrotation Xrotation Yrotation
                  End Site
                  {
                    OFFSET -2.48547 -0.328903 0.83742
                  }
                }
              }
              JOINT rRing1
              {
                OFFSET -8.82822 0.546677 1.51678
                CHANNELS 3 Zrotation Xrotation Yrotation
                JOINT rRing2
                {
                  OFFSET -2.60934 -0.819778 -0.0198488
                  CHANNELS 3 Zrotation Xrotation Yrotation
                  End Site
                  {
                    OFFSET -2.33842 -0.294052 0.168128
                  }
                }
              }
              JOINT rPinky1
              {
                OFFSET -8.27202 -0.0477905 -0.4584
                CHANNELS 3 Zrotation Xrotation Yrotation
                JOINT rPinky2
                {
                  OFFSET -1.82734 -0.647385 -0.700984
                  CHANNELS 3 Zrotation Xrotation Yrotation
                  End Site
                  {
                    OFFSET -1.69225 -0.51767 -0.607171
                  }
                }
              }
            }
          }
        }
      }
      JOINT lCollar
      {
        OFFSET 2.68224 19.2634 -4.8768
        CHANNELS 3 Zrotation Xrotation Yrotation
        JOINT lShldr
        {
          OFFSET 8.77824 -1.95073 1.46304
          CHANNELS 3 Zrotation Xrotation Yrotation
          JOINT lForeArm
          {
            OFFSET 28.1742 -1.7115 0.48768
            CHANNELS 3 Zrotation Xrotation Yrotation
            JOINT lHand
            {
              OFFSET 22.5879 0.773209 7.07136
              CHANNELS 3 Zrotation Xrotation Yrotation
              JOINT lThumb1
              {
                OFFSET 1.2192 -0.487915 3.41376
                CHANNELS 3 Zrotation Xrotation Yrotation
                JOINT lThumb2
                {
                  OFFSET 3.37035 -0.52449 3.41376
                  CHANNELS 3 Zrotation Xrotation Yrotation
                  End Site
                  {
                    OFFSET 1.78271 -1.18214 1.43049
                  }
                }
              }
              JOINT lIndex1
              {
                OFFSET 7.75947 0.938293 5.60832
                CHANNELS 3 Zrotation Xrotation Yrotation
                JOINT lIndex2
                {
                  OFFSET 2.54057 -0.884171 1.56538
                  CHANNELS 3 Zrotation Xrotation Yrotation
                  End Site
                  {
                    OFFSET 1.62519 -0.234802 1.16502
                  }
                }
              }
              JOINT lMid1
              {
                OFFSET 8.24714 1.18213 3.41376
                CHANNELS 3 Zrotation Xrotation Yrotation
                JOINT lMid2
                {
                  OFFSET 3.10165 -0.590103 1.0647
                  CHANNELS 3 Zrotation Xrotation Yrotation
                  End Site
                  {
                    OFFSET 2.48547 -0.328903 0.83742
                  }
                }
              }
              JOINT lRing1
              {
                OFFSET 8.82822 0.546677 1.51678
                CHANNELS 3 Zrotation Xrotation Yrotation
                JOINT lRing2
                {
                  OFFSET 2.60934 -0.819778 -0.0198488
                  CHANNELS 3 Zrotation Xrotation Yrotation
                  End Site
                  {
                    OFFSET 2.33842 -0.294052 0.168128
                  }
                }
              }
              JOINT lPinky1
              {
                OFFSET 8.27202 -0.0477905 -0.4584
                CHANNELS 3 Zrotation Xrotation Yrotation
                JOINT lPinky2
                {
                  OFFSET 1.82734 -0.647385 -0.700984
                  CHANNELS 3 Zrotation Xrotation Yrotation
                  End Site
                  {
                    OFFSET 1.69225 -0.51767 -0.607171
                  }
                }
              }
            }
          }
        }
      }
    }
  }
  JOINT rButtock
  {
    OFFSET -8.77824 4.35084 1.2192
    CHANNELS 3 Zrotation Xrotation Yrotation
    JOINT rThigh
    {
      OFFSET 0 -1.70687 -2.19456
      CHANNELS 3 Zrotation Xrotation Yrotation
      JOINT rShin
      {
        OFFSET 0 -36.8199 0.73152
        CHANNELS 3 Zrotation Xrotation Yrotation
        JOINT rFoot
        {
          OFFSET 0.73152 -45.1104 -5.12064
          CHANNELS 3 Zrotation Xrotation Yrotation
          End Site
          {
            OFFSET -1.1221 -3.69964 12.103
          }
        }
      }
    }
  }
  JOINT lButtock
  {
    OFFSET 8.77824 4.35084 1.2192
    CHANNELS 3 Zrotation Xrotation Yrotation
    JOINT lThigh
    {
      OFFSET 0 -1.70687 -2.19456
      CHANNELS 3 Zrotation Xrotation Yrotation
      JOINT lShin
      {
        OFFSET 0 -36.8199 0.73152
        CHANNELS 3 Zrotation Xrotation Yrotation
        JOINT lFoot
        {
          OFFSET -0.73152 -45.1104 -5.12064
          CHANNELS 3 Zrotation Xrotation Yrotation
          End Site
          {
            OFFSET 1.1221 -3.69964 12.103
          }
        }
      }
    }
  }
}
MOTION
Frames:	6
Frame Time:	0.00833333
26.475 82.715 -179.134 0.0 0.0 0.0 -0.188094 -0.00125239 -0.00538538 -0.0519272 -0.00198485 -0.00899611 -7.77244e-15 7.95139e-16 -3.21211e-23 -2.33199e-14 9.54166e-15 1.55301e-18 -0.0 0.0 0.0 -0.0 0.0 0.0 -3.77838e-15 -4.46489e-18 1.49089e-16 -8.07485e-14 -6.33626e-16 5.96354e-16 -1.40138e-12 4.15062e-13 1.27222e-14 -1.60969e-11 -4.49129e-13 -3.49861e-14 -3.7965e-11 -6.62921e-14 -2.22639e-14 -6.5585e-11 -1.08139e-13 -4.6118e-14 -3.79623e-11 -6.83819e-14 -3.18055e-14 7.73091 5.47488 0.417314 -3.79654e-11 -6.63941e-14 -2.8625e-14 2.90554 0.965183 0.102902 -3.7958e-11 -6.64935e-14 -2.70347e-14 10.2786 0.731801 0.0259123 -3.79691e-11 -6.32135e-14 -2.22639e-14 2.22167 -0.733487 -0.20892 -3.97447e-15 -4.27076e-18 -1.49089e-16 -8.30987e-14 -6.33626e-16 -1.19271e-15 -1.40978e-12 -4.26194e-13 1.27222e-14 -1.6094e-11 3.96252e-13 -1.59028e-14 -3.79662e-11 -5.73226e-14 -2.22639e-14 -6.55508e-11 -9.54166e-14 -3.81667e-14 -3.79699e-11 -5.92378e-14 -1.27222e-14 -7.73091 5.47488 -0.417314 -3.79645e-11 -5.79457e-14 -2.8625e-14 -2.90554 0.965183 -0.102902 -3.79685e-11 -5.80451e-14 -2.46493e-14 -10.2786 0.731801 -0.0259123 -3.79579e-11 -5.4467e-14 -3.18055e-14 -2.22167 -0.733487 0.20892 -2.03217e-16 0.0 -3.88251e-19 0.336779 -2.83766 -0.0337252 -0.00646426 -0.412348 -0.0567833 -0.47892 3.24961 0.120281 2.03217e-16 0.0 3.88251e-19 -0.62349 -3.58113 0.0516562 0.00431594 0.934359 0.036861 0.481687 2.6464 -0.10845
26.3883 78.849 -183.443 -0.3331 -3.7014 21.7092 0.0359481 -6.45083 -0.0312385 -0.0347026 0.687974 -0.0243895 -0.505363 1.47403 -1.04594 1.67251 6.64523 -2.37007 -0.0 0.0 0.0 -0.0 0.0 0.0 3.1686e-15 1.37857e-13 -7.07044e-15 20.9752 6.8903 -2.5358 -3.34167 -1.37767 5.36216 0.0138852 -2.61436 -0.366044 1.82879e-10 6.55848e-10 -1.39739e-09 3.22991e-10 1.13158e-09 -2.41426e-09 1.82885e-10 6.55846e-10 -1.3974e-09 7.73091 5.47488 0.417314 1.82879e-10 6.55848e-10 -1.3974e-09 2.90554 0.965183 0.102902 1.82884e-10 6.55848e-10 -1.3974e-09 10.2786 0.731801 0.0259123 1.82875e-10 6.55851e-10 -1.39739e-09 2.22167 -0.733487 -0.20892 3.0475e-15 1.37858e-13 -7.34261e-15 -22.1229 4.01354 3.49102 5.28871 -2.66282 -7.95895 -0.00051876 0.5053 -0.0710053 8.05e-11 1.07214e-09 6.76561e-10 1.42145e-10 1.85575e-09 1.17004e-09 8.0497e-11 1.07214e-09 6.76569e-10 -7.73091 5.47488 -0.417314 8.05023e-11 1.07214e-09 6.76555e-10 -2.90554 0.965183 -0.102902 8.04973e-11 1.07214e-09 6.76562e-10 -10.2786 0.731801 -0.0259123 8.05073e-11 1.07215e-09 6.76556e-10 -2.22167 -0.733487 0.20892 -2.03217e-16 0.0 -3.88251e-19 2.70413 -14.8157 0.405052 0.11849 11.4376 0.235314 -2.9287 -11.1241 -9.45324 2.03217e-16 0.0 3.88251e-19 -1.72167 -10.9721 3.0878 -0.0760156 14.7783 -0.212082 1.00499 -1.89326 3.9989
26.5611 78.8701 -183.507 -0.1178 -3.327 21.6107 0.274978 -13.2585 -0.0615123 -0.0176229 1.41759 -0.0417452 -0.987685 3.04841 -2.15153 4.05192 13.6277 -4.97783 -0.0 0.0 0.0 -0.0 0.0 0.0 1.05037e-14 2.84902e-13 -1.41914e-14 43.8313 14.1389 -5.34691 -6.59576 -2.79416 11.0415 -0.00791041 -5.37983 -0.755836 4.27115e-10 1.37336e-09 -2.91718e-09 7.52618e-10 2.36962e-09 -5.03998e-09 4.27125e-10 1.37336e-09 -2.91719e-09 7.73091 5.47488 0.417314 4.27115e-10 1.37336e-09 -2.91719e-09 2.90554 0.965183 0.102902 4.27118e-10 1.37336e-09 -2.91718e-09 10.2786 0.731801 0.0259123 4.27111e-10 1.37336e-09 -2.91718e-09 2.22167 -0.733487 -0.20892 1.04625e-14 2.84905e-13 -1.44367e-14 -46.0533 8.2 7.25446 10.0816 -5.3051 -16.4248 0.000294373 1.03845 -0.145943 2.13812e-10 2.24647e-09 1.41145e-09 3.75763e-10 3.8884e-09 2.44093e-09 2.13809e-10 2.24647e-09 1.41145e-09 -7.73091 5.47488 -0.417314 2.13815e-10 2.24647e-09 1.41144e-09 -2.90554 0.965183 -0.102902 2.13809e-10 2.24647e-09 1.41145e-09 -10.2786 0.731801 -0.0259123 2.13818e-10 2.24647e-09 1.41145e-09 -2.22167 -0.733487 0.20892 -2.03217e-16 0.0 -3.88251e-19 5.43138 -27.4472 0.910456 0.107925 23.9715 0.58387 -11.0906 -25.0056 -21.2831 2.03217e-16 0.0 3.88251e-19 -1.97949 -18.6636 6.58029 -0.0122447 29.4592 -0.52882 2.24626 -6.53 8.35083
26.7307 78.879 -183.709 0.2409 -2.6392 21.7966 0.465641 -19.35 -0.0872819 0.000859679 2.06789 -0.0552069 -1.35432 4.41619 -3.14612 6.74998 19.7949 -7.50842 -0.0 0.0 0.0 -0.0 0.0 0.0 1.70626e-14 4.13579e-13 -2.15095e-14 64.8542 20.5034 -8.0665 -9.26114 -3.98846 16.1219 -0.059357 -7.8418 -1.10735 6.24567e-10 1.96768e-09 -4.19213e-09 1.10014e-09 3.39496e-09 -7.24268e-09 6.2458e-10 1.96767e-09 -4.19214e-09 7.73091 5.47488 0.417314 6.24567e-10 1.96768e-09 -4.19214e-09 2.90554 0.965183 0.102902 6.24568e-10 1.96768e-09 -4.19213e-09 10.2786 0.731801 0.0259123 6.24563e-10 1.96768e-09 -4.19213e-09 2.22167 -0.733487 -0.20892 1.70915e-14 4.13584e-13 -2.17296e-14 -67.8538 11.86 10.6779 13.7029 -7.37319 -24.0623 0.00220206 1.51589 -0.213082 3.17432e-10 3.21655e-09 2.02973e-09 5.57536e-10 5.56744e-09 3.5102e-09 3.17431e-10 3.21655e-09 2.02973e-09 -7.73091 5.47488 -0.417314 3.17436e-10 3.21655e-09 2.02972e-09 -2.90554 0.965183 -0.102902 3.17429e-10 3.21655e-09 2.02973e-09 -10.2786 0.731801 -0.0259123 3.17438e-10 3.21655e-09 2.02973e-09 -2.22167 -0.733487 0.20892 -2.03217e-16 0.0 -3.88251e-19 8.12229 -38.7621 1.59305 -0.059289 35.1337 0.984947 -24.0852 -34.8183 -34.9612 2.03217e-16 0.0 3.88251e-19 -1.35588 -25.4609 9.96731 0.230312 42.4626 -0.933859 4.01518 -10.7351 12.4277
26.8469 78.9627 -183.567 0.0701 -3.51 21.3038 0.550701 -23.6508 -0.0971034 0.0219392 2.51992 -0.0589006 -1.54859 5.27321 -3.85484 9.00202 24.056 -9.47134 -0.0 0.0 0.0 -0.0 0.0 0.0 2.16808e-14 4.96338e-13 -2.93207e-14 79.8851 24.8191 -10.1155 -10.99 -4.76511 19.6715 -0.113092 -9.54629 -1.35432 7.05059e-10 2.25402e-09 -4.85498e-09 1.24242e-09 3.8886e-09 -8.38784e-09 7.05073e-10 2.25401e-09 -4.85499e-09 7.73091 5.47488 0.417314 7.05059e-10 2.25402e-09 -4.85498e-09 2.90554 0.965183 0.102902 7.0506e-10 2.25402e-09 -4.85498e-09 10.2786 0.731801 0.0259123 7.05056e-10 2.25402e-09 -4.85497e-09 2.22167 -0.733487 -0.20892 2.17551e-14 4.96343e-13 -2.95195e-14 -83.2684 14.379 13.0557 15.8956 -8.59061 -29.4526 0.00421789 1.85407 -0.260665 3.46825e-10 3.676e-09 2.35649e-09 6.09697e-10 6.36242e-09 4.07541e-09 3.46824e-10 3.676e-09 2.3565e-09 -7.73091 5.47488 -0.417314 3.46829e-10 3.67601e-09 2.35649e-09 -2.90554 0.965183 -0.102902 3.46821e-10 3.676e-09 2.3565e-09 -10.2786 0.731801 -0.0259123 3.4683e-10 3.67601e-09 2.3565e-09 -2.22167 -0.733487 0.20892 -2.03217e-16 0.0 -3.88251e-19 10.3252 -46.7901 2.51363 -0.302577 42.8698 1.36484 -36.6401 -39.3463 -46.6749 2.03217e-16 0.0 3.88251e-19 -0.450936 -30.3125 12.3494 0.568178 51.2753 -1.35897 5.82283 -14.0702 15.625
27.0331 78.9005 -183.727 0.689 -1.7912 21.1015 0.557979 -25.5178 -0.0133579 0.0347361 2.73575 -0.0331799 -1.54229 5.36634 -4.1577 9.98645 25.7526 -10.3534 -0.0 0.0 0.0 -0.0 0.0 0.0 2.21674e-14 5.1715e-13 -4.00505e-14 85.7938 26.3887 -10.8366 -11.6363 -5.05257 21.0581 -0.137739 -10.1966 -1.44953 6.1576e-10 2.05403e-09 -4.59251e-09 1.08648e-09 3.54239e-09 -7.93422e-09 6.15773e-10 2.05403e-09 -4.59252e-09 7.73091 5.47488 0.417314 6.1576e-10 2.05403e-09 -4.59252e-09 2.90554 0.965183 0.102902 6.15761e-10 2.05403e-09 -4.59251e-09 10.2786 0.731801 0.0259123 6.15759e-10 2.05403e-09 -4.5925e-09 2.22167 -0.733487 -0.20892 2.22515e-14 5.17155e-13 -4.02287e-14 -89.2477 15.414 13.7846 16.695 -9.01566 -31.5988 0.00527884 2.00867 -0.282424 2.73005e-10 3.36153e-09 2.24775e-09 4.81479e-10 5.81735e-09 3.88753e-09 2.73003e-10 3.36153e-09 2.24775e-09 -7.73091 5.47488 -0.417314 2.73008e-10 3.36153e-09 2.24775e-09 -2.90554 0.965183 -0.102902 2.73e-10 3.36153e-09 2.24776e-09 -10.2786 0.731801 -0.0259123 2.73009e-10 3.36153e-09 2.24775e-09 -2.22167 -0.733487 0.20892 -2.03217e-16 0.0 -3.88251e-19 11.6129 -50.3088 3.60089 -0.435388 45.8132 1.55717 -42.4903 -40.6173 -51.7952 2.03217e-16 0.0 3.88251e-19 -0.110917 -32.7323 12.8304 0.738892 54.2217 -1.5692 7.12787 -16.3996 17.4562
